<svg width="97" height="127" viewBox="0 0 97 127" fill="none" xmlns="http://www.w3.org/2000/svg">
<path fill-rule="evenodd" clip-rule="evenodd" d="M49.3434 0.503798C47.5422 1.12176 44.8964 3.03711 43.7458 4.55543C41.303 7.77972 40.3024 10.7054 40.2534 14.767C40.207 18.6354 41.0894 21.5079 43.1424 24.1709C44.0948 25.4063 45.7316 26.7841 46.2466 26.7841C46.8011 26.7841 46.9069 25.8799 46.9216 21.0067C46.9364 16.1767 46.9535 15.9997 47.5382 14.6595C47.8692 13.9015 48.2331 13.2501 48.3472 13.2119C48.7326 13.0834 50.333 18.5954 50.711 21.3533C51.1219 24.3491 50.3612 29.5761 48.8783 33.9482C48.2855 35.6956 48.0779 36.9525 48.3818 36.9525C48.5165 36.9525 49.2956 36.3024 50.1138 35.5081C54.5002 31.2483 56.7465 25.1738 56.7483 17.5656C56.7497 11.8286 55.2934 4.96077 53.3303 1.44553C52.4165 -0.190653 51.7946 -0.337402 49.3434 0.503798Z" fill="url(#paint0_linear_6_1283)"/>
<path fill-rule="evenodd" clip-rule="evenodd" d="M79.2545 19.4498C76.303 20.0424 73.2229 21.3946 71.6283 22.7976C71.3106 23.0771 70.7104 23.5674 70.2947 23.8871C68.8891 24.9676 65.9507 29.1042 65.5056 30.6291C65.413 30.946 65.204 31.5165 65.0411 31.8968C64.7613 32.5502 64.3959 34.0423 63.7435 37.1978C63.2741 39.4674 63.3895 49.146 63.9711 56.3278C65.2348 71.9271 65.5583 80.5849 65.1696 88.4077C64.5567 100.746 62.121 108.93 57.4935 114.2C54.3928 117.732 50.2365 120.269 45.6164 121.45C42.886 122.149 37.764 122.184 35.139 121.524L33.4298 121.093H37.4499C41.1167 121.093 41.6936 121.036 44.0122 120.438C46.5503 119.784 50.2169 118.108 50.0699 117.668C50.0293 117.547 49.5338 117.409 48.9685 117.363C42.5288 116.838 38.247 112.752 35.6095 104.614C33.4771 98.0347 32.8067 90.2276 32.8051 71.9547C32.8042 62.6092 32.7268 59.3372 32.4585 57.2954C32.1021 54.5835 31.0864 50.7149 30.3589 49.2981C27.5804 43.8864 22.341 39.88 16.4261 38.6437C12.0738 37.7342 6.56189 38.0439 3.56409 39.3664C2.40791 39.8765 0.784915 41.285 0.319716 42.182C-0.110588 43.012 -0.105503 44.9916 0.328729 45.8294C0.765734 46.6723 2.57477 48.19 5.10967 49.8409C8.3113 51.9256 10.0332 54.2083 10.8148 57.4039C11.2243 59.0779 11.5201 64.1474 11.7634 73.6647C11.8864 78.4705 12.0371 82.5511 12.0981 82.733C12.1593 82.9148 12.3202 84.4674 12.4558 86.1831C12.7024 89.3059 13.7733 96.0525 14.4437 98.7072C15.5377 103.04 17.7121 108.333 19.4262 110.837C24.3439 118.021 29.7061 121.937 38.2197 124.562C42.5835 125.908 49.9333 126.422 54.7582 125.72C63.5242 124.444 72.0471 120.068 76.0797 114.772C76.6177 114.065 77.1153 113.435 77.1853 113.372C77.2553 113.309 77.5624 112.894 77.868 112.45C78.1735 112.007 78.4804 111.592 78.5502 111.528C78.6197 111.465 78.8732 111.05 79.1133 110.606C82.2743 104.766 83.5816 100.231 84.5954 91.5916C84.7725 90.0842 84.9236 81.3132 85.0327 66.2386C85.2134 41.2672 85.2529 40.4771 86.5403 36.0463C87.4474 32.9245 89.002 30.0789 91.0662 27.7621C92.0721 26.6332 94.8823 24.451 96.3796 23.6363C97.1378 23.2237 97.1466 23.203 96.6994 22.8621C95.1261 21.6629 90.1427 19.8373 87.1119 19.35C85.1018 19.0269 81.1091 19.0776 79.2545 19.4498Z" fill="url(#paint1_linear_6_1283)"/>
<path d="M67.7434 26.2852C73.9633 15.7148 90.4345 17.341 97 22.5681C91.8167 26.4013 86.288 34.5262 85.4816 42.1988C84.6753 89.2429 90.6649 116.656 58.068 125.374C68.8952 120.379 72.7982 108.525 72.2355 95.5216C71.3378 74.7769 56.1099 41.7342 67.7434 26.2852Z" fill="url(#paint2_linear_6_1283)"/>
<defs>
<linearGradient id="paint0_linear_6_1283" x1="48.5" y1="0.00012207" x2="48.5" y2="36.9525" gradientUnits="userSpaceOnUse">
<stop stop-color="#9FC148"/>
<stop offset="1" stop-color="#6D9A0F"/>
</linearGradient>
<linearGradient id="paint1_linear_6_1283" x1="74.0668" y1="72.6002" x2="2.47592e-06" y2="72.585" gradientUnits="userSpaceOnUse">
<stop stop-color="#80A731"/>
<stop offset="1" stop-color="#394F1E"/>
</linearGradient>
<linearGradient id="paint2_linear_6_1283" x1="97" y1="40.108" x2="57.5236" y2="125.115" gradientUnits="userSpaceOnUse">
<stop stop-color="#ACC855"/>
<stop offset="1" stop-color="#D0D789"/>
</linearGradient>
</defs>
</svg>
